<svg width="1024" height="1024" viewBox="0 0 1024 1024" fill="none" xmlns="http://www.w3.org/2000/svg">
<rect x="272" y="274" width="475" height="475" rx="45" fill="#B0C4D3"/>
<rect x="320" y="319" width="385" height="385" rx="18" fill="#01223B"/>
<mask id="mask0_2_51" style="mask-type:alpha" maskUnits="userSpaceOnUse" x="272" y="468" width="523" height="178">
<path d="M272 618.5V508V468H306.5L747 482.5V589L794.5 638.5L705 645.5V619L702 539.5L666 528L319 508V644.5L272 618.5Z" fill="white"/>
</mask>
<g mask="url(#mask0_2_51)">
<path d="M640.137 461.613C640.137 530.987 581.536 587.225 509.248 587.225C436.96 587.225 378.358 530.987 378.358 461.613C378.358 392.239 436.96 336 509.248 336C581.536 336 640.137 392.239 640.137 461.613Z" fill="white"/>
<path d="M350.881 460.611C354.01 416.936 369.293 382.6 401.838 350.513C330.234 322.302 270.949 354.016 217.994 436.59C213.984 443.562 214.02 447.278 217.994 453.606L344.886 587.726C348.451 591.24 352.38 592.23 356.377 592.23C360.373 592.23 373.862 586.725 373.862 576.215V537.18C355.372 511.55 350.565 494.684 350.881 460.611Z" fill="white"/>
<path d="M667.116 460.388C663.987 416.639 648.704 382.245 616.158 350.103C687.763 321.844 747.05 353.612 800.006 436.326C804.016 443.31 803.98 447.032 800.006 453.371L673.111 587.718C669.546 591.239 665.617 592.23 661.62 592.23C657.623 592.23 644.135 586.716 644.135 576.188V537.087C662.625 511.414 667.432 494.518 667.116 460.388Z" fill="white"/>
<path d="M366.368 651.783C359.874 658.788 372.363 678.808 387.351 665.795C402.338 652.783 409.832 637.771 416.826 618.754C423.82 596.234 427.817 571.711 426.817 559.2C425.818 546.688 399.341 514.159 399.341 529.673C399.341 545.188 402.438 576.848 395.344 600.738C387.099 628.503 372.863 644.777 366.368 651.783Z" fill="white"/>
<path d="M652.378 651.912C658.829 658.947 646.422 679.05 631.534 665.983C616.646 652.917 609.202 637.842 602.254 618.746C595.306 596.133 591.336 571.508 592.329 558.945C593.321 546.381 619.624 513.717 619.624 529.295C619.624 544.874 616.546 576.666 623.594 600.655C631.785 628.536 645.926 644.878 652.378 651.912Z" fill="white"/>
<path d="M452.296 575.215C452.296 562.203 454.294 556.698 454.294 556.698L561.704 559.2L566.2 574.714L565.201 654.286C565.923 667.907 565.174 675.48 560.704 688.817C553.676 705.843 547.985 714.305 533.727 726.851C515.572 740.597 503.259 743.738 478.274 742.865C458.682 740.128 449.498 735.092 435.31 721.846C425.456 710.631 420.896 703.308 417.825 684.813C417.658 676.471 417.791 671.283 420.822 662.793C425.895 654.424 429.315 651.094 435.31 649.281C447.369 645.635 454.809 650.532 460.289 657.789C464.525 662.038 462.223 671.107 463.786 678.808C465.081 685.182 467.372 689.217 472.779 692.82C480.251 697.8 488.262 696.997 495.759 692.82C503.256 688.643 505.785 684.688 508.249 677.306C510.663 670.075 508.403 662.542 507.749 657.789C507.095 653.036 504.624 647.71 501.754 644.277C498.884 640.843 472.234 617.25 465.285 609.746C458.336 602.241 452.296 588.226 452.296 575.215Z" fill="white"/>
<path d="M640.137 461.613C640.137 530.987 581.536 587.225 509.248 587.225C436.96 587.225 378.358 530.987 378.358 461.613C378.358 392.239 436.96 336 509.248 336C581.536 336 640.137 392.239 640.137 461.613Z" stroke="#729BB6" stroke-width="85"/>
<path d="M350.881 460.611C354.01 416.936 369.293 382.6 401.838 350.513C330.234 322.302 270.949 354.016 217.994 436.59C213.984 443.562 214.02 447.278 217.994 453.606L344.886 587.726C348.451 591.24 352.38 592.23 356.377 592.23C360.373 592.23 373.862 586.725 373.862 576.215V537.18C355.372 511.55 350.565 494.684 350.881 460.611Z" stroke="#729BB6" stroke-width="85"/>
<path d="M667.116 460.388C663.987 416.639 648.704 382.245 616.158 350.103C687.763 321.844 747.05 353.612 800.006 436.326C804.016 443.31 803.98 447.032 800.006 453.371L673.111 587.718C669.546 591.239 665.617 592.23 661.62 592.23C657.623 592.23 644.135 586.716 644.135 576.188V537.087C662.625 511.414 667.432 494.518 667.116 460.388Z" stroke="#729BB6" stroke-width="85"/>
<path d="M366.368 651.783C359.874 658.788 372.363 678.808 387.351 665.795C402.338 652.783 409.832 637.771 416.826 618.754C423.82 596.234 427.817 571.711 426.817 559.2C425.818 546.688 399.341 514.159 399.341 529.673C399.341 545.188 402.438 576.848 395.344 600.738C387.099 628.503 372.863 644.777 366.368 651.783Z" stroke="#729BB6" stroke-width="85"/>
<path d="M652.378 651.912C658.829 658.947 646.422 679.05 631.534 665.983C616.646 652.917 609.202 637.842 602.254 618.746C595.306 596.133 591.336 571.508 592.329 558.945C593.321 546.381 619.624 513.717 619.624 529.295C619.624 544.874 616.546 576.666 623.594 600.655C631.785 628.536 645.926 644.878 652.378 651.912Z" stroke="#729BB6" stroke-width="85"/>
<path d="M452.296 575.215C452.296 562.203 454.294 556.698 454.294 556.698L561.704 559.2L566.2 574.714L565.201 654.286C565.923 667.907 565.174 675.48 560.704 688.817C553.676 705.843 547.985 714.305 533.727 726.851C515.572 740.597 503.259 743.738 478.274 742.865C458.682 740.128 449.498 735.092 435.31 721.846C425.456 710.631 420.896 703.308 417.825 684.813C417.658 676.471 417.791 671.283 420.822 662.793C425.895 654.424 429.315 651.094 435.31 649.281C447.369 645.635 454.809 650.532 460.289 657.789C464.525 662.038 462.223 671.107 463.786 678.808C465.081 685.182 467.372 689.217 472.779 692.82C480.251 697.8 488.262 696.997 495.759 692.82C503.256 688.643 505.785 684.688 508.249 677.306C510.663 670.075 508.403 662.542 507.749 657.789C507.095 653.036 504.624 647.71 501.754 644.277C498.884 640.843 472.234 617.25 465.285 609.746C458.336 602.241 452.296 588.226 452.296 575.215Z" stroke="#729BB6" stroke-width="85"/>
</g>
<path d="M640 461.5C640 530.812 581.349 587 509 587C436.651 587 378 530.812 378 461.5C378 392.188 436.651 336 509 336C581.349 336 640 392.188 640 461.5Z" fill="white"/>
<path d="M350.5 460.5C353.631 416.863 368.927 382.558 401.5 350.5C329.836 322.314 270.5 354 217.5 436.5C213.487 443.466 213.523 447.178 217.5 453.5L344.5 587.5C348.068 591.011 352 592 356 592C360 592 373.5 586.5 373.5 576V537C354.994 511.393 350.184 494.541 350.5 460.5Z" fill="white"/>
<path d="M667.001 460.277C663.87 416.566 648.574 382.203 616 350.09C687.666 321.857 747.003 353.596 800.004 436.236C804.017 443.214 803.981 446.933 800.004 453.265L673.001 587.492C669.433 591.01 665.501 592 661.501 592C657.501 592 644.001 586.491 644.001 575.973V536.907C662.507 511.256 667.317 494.376 667.001 460.277Z" fill="white"/>
<path d="M366 651.499C359.5 658.499 372 678.5 387 665.499C402 652.499 409.5 637.5 416.5 618.5C423.5 596 427.5 571.5 426.5 559C425.5 546.499 399 513.999 399 529.5C399 545 402.1 576.632 395 600.5C386.748 628.241 372.5 644.5 366 651.499Z" fill="white"/>
<path d="M652.25 651.629C658.707 658.657 646.29 678.742 631.39 665.687C616.489 652.633 609.038 637.571 602.085 618.492C595.131 595.899 591.158 571.297 592.151 558.745C593.144 546.192 619.469 513.557 619.469 529.122C619.469 544.687 616.389 576.45 623.442 600.418C631.64 628.274 645.793 644.601 652.25 651.629Z" fill="white"/>
<path d="M452 575C452 562 454 556.5 454 556.5L561.5 559L566 574.5L565 654C565.723 667.609 564.974 675.176 560.5 688.5C553.465 705.511 547.769 713.966 533.5 726.5C515.33 740.234 503.007 743.373 478 742.5C458.392 739.765 449.2 734.734 435 721.5C425.138 710.295 420.574 702.978 417.5 684.5C417.333 676.165 417.465 670.982 420.5 662.5C425.577 654.139 429 650.811 435 649C447.069 645.357 454.515 650.249 460 657.5C464.24 661.745 461.935 670.807 463.5 678.5C464.796 684.869 467.089 688.9 472.5 692.5C479.978 697.475 487.997 696.673 495.5 692.5C503.003 688.327 505.534 684.375 508 677C510.416 669.776 508.155 662.249 507.5 657.5C506.845 652.751 504.372 647.431 501.5 644C498.628 640.569 471.954 616.998 465 609.5C458.046 602.002 452 588 452 575Z" fill="white"/>
<path d="M640 461.5C640 530.812 581.349 587 509 587C436.651 587 378 530.812 378 461.5C378 392.188 436.651 336 509 336C581.349 336 640 392.188 640 461.5Z" stroke="#01223B" stroke-width="54"/>
<path d="M350.5 460.5C353.631 416.863 368.927 382.558 401.5 350.5C329.836 322.314 270.5 354 217.5 436.5C213.487 443.466 213.523 447.178 217.5 453.5L344.5 587.5C348.068 591.011 352 592 356 592C360 592 373.5 586.5 373.5 576V537C354.994 511.393 350.184 494.541 350.5 460.5Z" stroke="#01223B" stroke-width="54"/>
<path d="M667.001 460.277C663.87 416.566 648.574 382.203 616 350.09C687.666 321.857 747.003 353.596 800.004 436.236C804.017 443.214 803.981 446.933 800.004 453.265L673.001 587.492C669.433 591.01 665.501 592 661.501 592C657.501 592 644.001 586.491 644.001 575.973V536.907C662.507 511.256 667.317 494.376 667.001 460.277Z" stroke="#01223B" stroke-width="54"/>
<path d="M366 651.499C359.5 658.499 372 678.5 387 665.499C402 652.499 409.5 637.5 416.5 618.5C423.5 596 427.5 571.5 426.5 559C425.5 546.499 399 513.999 399 529.5C399 545 402.1 576.632 395 600.5C386.748 628.241 372.5 644.5 366 651.499Z" stroke="#01223B" stroke-width="54"/>
<path d="M652.25 651.629C658.707 658.657 646.29 678.742 631.39 665.687C616.489 652.633 609.038 637.571 602.085 618.492C595.131 595.899 591.158 571.297 592.151 558.745C593.144 546.192 619.469 513.557 619.469 529.122C619.469 544.687 616.389 576.45 623.442 600.418C631.64 628.274 645.793 644.601 652.25 651.629Z" stroke="#01223B" stroke-width="54"/>
<path d="M452 575C452 562 454 556.5 454 556.5L561.5 559L566 574.5L565 654C565.723 667.609 564.974 675.176 560.5 688.5C553.465 705.511 547.769 713.966 533.5 726.5C515.33 740.234 503.007 743.373 478 742.5C458.392 739.765 449.2 734.734 435 721.5C425.138 710.295 420.574 702.978 417.5 684.5C417.333 676.165 417.465 670.982 420.5 662.5C425.577 654.139 429 650.811 435 649C447.069 645.357 454.515 650.249 460 657.5C464.24 661.745 461.935 670.807 463.5 678.5C464.796 684.869 467.089 688.9 472.5 692.5C479.978 697.475 487.997 696.673 495.5 692.5C503.003 688.327 505.534 684.375 508 677C510.416 669.776 508.155 662.249 507.5 657.5C506.845 652.751 504.372 647.431 501.5 644C498.628 640.569 471.954 616.998 465 609.5C458.046 602.002 452 588 452 575Z" stroke="#01223B" stroke-width="54"/>
<ellipse cx="509" cy="461.5" rx="131" ry="125.5" fill="white"/>
<path d="M350.5 460.5C353.631 416.863 368.927 382.558 401.5 350.5C329.836 322.314 270.5 354 217.5 436.5C213.487 443.466 213.523 447.178 217.5 453.5L344.5 587.5C348.068 591.011 352 592 356 592C360 592 373.5 586.5 373.5 576V537C354.994 511.393 350.184 494.541 350.5 460.5Z" fill="white"/>
<mask id="mask1_2_51" style="mask-type:alpha" maskUnits="userSpaceOnUse" x="214" y="340" width="188" height="252">
<path d="M350.5 460.5C353.631 416.863 368.927 382.558 401.5 350.5C329.836 322.314 270.5 354 217.5 436.5C213.487 443.466 213.523 447.178 217.5 453.5L344.5 587.5C348.068 591.011 352 592 356 592C360 592 373.5 586.5 373.5 576V537C354.994 511.393 350.184 494.541 350.5 460.5Z" fill="white"/>
</mask>
<g mask="url(#mask1_2_51)">
<path d="M422.817 462.277C426.083 418.566 442.033 384.203 476 352.09C401.268 323.857 339.393 355.596 284.124 438.236C279.94 445.214 279.977 448.933 284.124 455.265L416.56 589.492C420.281 593.01 424.381 594 428.552 594C432.724 594 446.802 588.491 446.802 577.973V538.907C427.504 513.256 422.487 496.376 422.817 462.277Z" fill="#98B7CC"/>
</g>
<path d="M667.001 460.073C663.87 416.437 648.574 382.132 616 350.073C687.666 321.887 747.003 353.573 800.004 436.073C804.017 443.039 803.981 446.752 800.004 453.073L673.001 587.073C669.433 590.584 665.501 591.573 661.501 591.573C657.501 591.573 644.001 586.073 644.001 575.573V536.573C662.507 510.966 667.317 494.115 667.001 460.073Z" fill="white"/>
<mask id="mask2_2_51" style="mask-type:alpha" maskUnits="userSpaceOnUse" x="616" y="340" width="187" height="252">
<path d="M667.001 460.073C663.87 416.437 648.574 382.132 616 350.073C687.666 321.887 747.003 353.573 800.004 436.073C804.017 443.039 803.981 446.752 800.004 453.073L673.001 587.073C669.433 590.584 665.501 591.573 661.501 591.573C657.501 591.573 644.001 586.073 644.001 575.573V536.573C662.507 510.966 667.317 494.115 667.001 460.073Z" fill="white"/>
</mask>
<g mask="url(#mask2_2_51)">
<path d="M594.682 461.85C591.417 418.14 575.467 383.776 541.498 351.664C616.232 323.43 678.108 355.17 733.378 437.81C737.563 444.787 737.525 448.506 733.378 454.839L600.939 589.066C597.219 592.583 593.118 593.573 588.947 593.573C584.776 593.573 570.697 588.064 570.697 577.546V538.48C589.996 512.83 595.012 495.95 594.682 461.85Z" fill="#98B7CC"/>
</g>
<path d="M366 651.499C359.5 658.499 372 678.5 387 665.499C402 652.499 409.5 637.5 416.5 618.5C423.5 596 427.5 571.5 426.5 559C425.5 546.499 399 513.999 399 529.5C399 545 402.1 576.632 395 600.5C386.748 628.241 372.5 644.5 366 651.499Z" fill="white"/>
<path d="M652.25 651.629C658.707 658.657 646.29 678.742 631.39 665.687C616.489 652.633 609.038 637.571 602.085 618.492C595.131 595.899 591.158 571.297 592.151 558.745C593.144 546.192 619.469 513.557 619.469 529.122C619.469 544.687 616.389 576.45 623.442 600.418C631.64 628.274 645.793 644.601 652.25 651.629Z" fill="white"/>
<path d="M452 575C452 562 454 556.5 454 556.5L561.5 559L566 574.5L565 654C565.723 667.609 564.974 675.176 560.5 688.5C553.465 705.511 547.769 713.966 533.5 726.5C515.33 740.234 503.007 743.373 478 742.5C458.392 739.765 449.2 734.734 435 721.5C425.138 710.295 420.574 702.978 417.5 684.5C417.333 676.165 417.466 670.982 420.5 662.5C425.577 654.139 429 650.811 435 649C447.069 645.357 454.515 650.249 460 657.5C464.24 661.745 461.935 670.807 463.5 678.5C464.796 684.869 467.089 688.9 472.5 692.5C479.978 697.475 487.997 696.673 495.5 692.5C503.003 688.327 505.534 684.375 508 677C510.416 669.776 508.155 662.249 507.5 657.5C506.845 652.751 504.372 647.431 501.5 644C498.628 640.569 471.954 616.998 465 609.5C458.046 602.002 452 588 452 575Z" fill="white"/>
<circle cx="443.5" cy="466.5" r="22.5" fill="#04253D"/>
<circle cx="573.5" cy="466.5" r="22.5" fill="#04253D"/>
</svg>
