<svg width="750" height="750" viewBox="0 0 750 750" fill="none" xmlns="http://www.w3.org/2000/svg">
<g clip-path="url(#clip0_3_86)">
<rect x="14" y="14" width="722" height="722" fill="#01223B" stroke="#7299B4" stroke-width="28"/>
<rect x="138" y="137" width="475" height="475" rx="45" fill="#B0C4D3"/>
<rect x="186" y="182" width="385" height="385" rx="18" fill="#01223B"/>
<mask id="mask0_3_86" style="mask-type:alpha" maskUnits="userSpaceOnUse" x="138" y="331" width="523" height="178">
<path d="M138 481.5V371V331H172.5L613 345.5V452L660.5 501.5L571 508.5V482L568 402.5L532 391L185 371V507.5L138 481.5Z" fill="white"/>
</mask>
<g mask="url(#mask0_3_86)">
<path d="M506.137 324.613C506.137 393.987 447.536 450.225 375.248 450.225C302.96 450.225 244.358 393.987 244.358 324.613C244.358 255.239 302.96 199 375.248 199C447.536 199 506.137 255.239 506.137 324.613Z" fill="white"/>
<path d="M216.881 323.611C220.01 279.936 235.293 245.6 267.838 213.513C196.234 185.302 136.949 217.016 83.9935 299.59C79.9843 306.562 80.0201 310.278 83.9935 316.606L210.886 450.726C214.451 454.24 218.38 455.23 222.377 455.23C226.373 455.23 239.862 449.725 239.862 439.215V400.18C221.372 374.55 216.565 357.684 216.881 323.611Z" fill="white"/>
<path d="M533.116 323.388C529.987 279.639 514.704 245.245 482.158 213.103C553.763 184.844 613.05 216.612 666.006 299.326C670.016 306.31 669.98 310.032 666.006 316.371L539.111 450.718C535.546 454.239 531.617 455.23 527.62 455.23C523.623 455.23 510.135 449.716 510.135 439.188V400.087C528.625 374.414 533.432 357.518 533.116 323.388Z" fill="white"/>
<path d="M232.368 514.783C225.874 521.788 238.363 541.808 253.351 528.795C268.338 515.783 275.832 500.771 282.826 481.754C289.82 459.234 293.817 434.711 292.817 422.2C291.818 409.688 265.341 377.159 265.341 392.673C265.341 408.188 268.438 439.848 261.344 463.738C253.099 491.503 238.863 507.777 232.368 514.783Z" fill="white"/>
<path d="M518.378 514.912C524.829 521.947 512.422 542.05 497.534 528.983C482.646 515.917 475.202 500.842 468.254 481.746C461.306 459.133 457.336 434.508 458.329 421.945C459.321 409.381 485.624 376.717 485.624 392.295C485.624 407.874 482.546 439.666 489.594 463.655C497.785 491.536 511.926 507.878 518.378 514.912Z" fill="white"/>
<path d="M318.296 438.215C318.296 425.203 320.294 419.698 320.294 419.698L427.704 422.2L432.2 437.714L431.201 517.286C431.923 530.907 431.174 538.48 426.704 551.817C419.676 568.843 413.985 577.305 399.727 589.851C381.572 603.597 369.259 606.738 344.274 605.865C324.682 603.128 315.498 598.092 301.31 584.846C291.456 573.631 286.896 566.308 283.825 547.813C283.658 539.471 283.791 534.283 286.822 525.793C291.895 517.424 295.315 514.094 301.31 512.281C313.369 508.635 320.809 513.532 326.289 520.789C330.525 525.038 328.223 534.107 329.786 541.808C331.081 548.182 333.372 552.217 338.779 555.82C346.251 560.8 354.262 559.997 361.759 555.82C369.256 551.643 371.785 547.688 374.249 540.306C376.663 533.075 374.403 525.542 373.749 520.789C373.095 516.036 370.624 510.71 367.754 507.277C364.884 503.843 338.234 480.25 331.285 472.746C324.336 465.241 318.296 451.226 318.296 438.215Z" fill="white"/>
<path d="M506.137 324.613C506.137 393.987 447.536 450.225 375.248 450.225C302.96 450.225 244.358 393.987 244.358 324.613C244.358 255.239 302.96 199 375.248 199C447.536 199 506.137 255.239 506.137 324.613Z" stroke="#729BB6" stroke-width="85"/>
<path d="M216.881 323.611C220.01 279.936 235.293 245.6 267.838 213.513C196.234 185.302 136.949 217.016 83.9935 299.59C79.9843 306.562 80.0201 310.278 83.9935 316.606L210.886 450.726C214.451 454.24 218.38 455.23 222.377 455.23C226.373 455.23 239.862 449.725 239.862 439.215V400.18C221.372 374.55 216.565 357.684 216.881 323.611Z" stroke="#729BB6" stroke-width="85"/>
<path d="M533.116 323.388C529.987 279.639 514.704 245.245 482.158 213.103C553.763 184.844 613.05 216.612 666.006 299.326C670.016 306.31 669.98 310.032 666.006 316.371L539.111 450.718C535.546 454.239 531.617 455.23 527.62 455.23C523.623 455.23 510.135 449.716 510.135 439.188V400.087C528.625 374.414 533.432 357.518 533.116 323.388Z" stroke="#729BB6" stroke-width="85"/>
<path d="M232.368 514.783C225.874 521.788 238.363 541.808 253.351 528.795C268.338 515.783 275.832 500.771 282.826 481.754C289.82 459.234 293.817 434.711 292.817 422.2C291.818 409.688 265.341 377.159 265.341 392.673C265.341 408.188 268.438 439.848 261.344 463.738C253.099 491.503 238.863 507.777 232.368 514.783Z" stroke="#729BB6" stroke-width="85"/>
<path d="M518.378 514.912C524.829 521.947 512.422 542.05 497.534 528.983C482.646 515.917 475.202 500.842 468.254 481.746C461.306 459.133 457.336 434.508 458.329 421.945C459.321 409.381 485.624 376.717 485.624 392.295C485.624 407.874 482.546 439.666 489.594 463.655C497.785 491.536 511.926 507.878 518.378 514.912Z" stroke="#729BB6" stroke-width="85"/>
<path d="M318.296 438.215C318.296 425.203 320.294 419.698 320.294 419.698L427.704 422.2L432.2 437.714L431.201 517.286C431.923 530.907 431.174 538.48 426.704 551.817C419.676 568.843 413.985 577.305 399.727 589.851C381.572 603.597 369.259 606.738 344.274 605.865C324.682 603.128 315.498 598.092 301.31 584.846C291.456 573.631 286.896 566.308 283.825 547.813C283.658 539.471 283.791 534.283 286.822 525.793C291.895 517.424 295.315 514.094 301.31 512.281C313.369 508.635 320.809 513.532 326.289 520.789C330.525 525.038 328.223 534.107 329.786 541.808C331.081 548.182 333.372 552.217 338.779 555.82C346.251 560.8 354.262 559.997 361.759 555.82C369.256 551.643 371.785 547.688 374.249 540.306C376.663 533.075 374.403 525.542 373.749 520.789C373.095 516.036 370.624 510.71 367.754 507.277C364.884 503.843 338.234 480.25 331.285 472.746C324.336 465.241 318.296 451.226 318.296 438.215Z" stroke="#729BB6" stroke-width="85"/>
</g>
<path d="M506 324.5C506 393.812 447.349 450 375 450C302.651 450 244 393.812 244 324.5C244 255.188 302.651 199 375 199C447.349 199 506 255.188 506 324.5Z" fill="white"/>
<path d="M216.5 323.5C219.631 279.863 234.927 245.558 267.5 213.5C195.836 185.314 136.5 217 83.4999 299.5C79.4874 306.466 79.5231 310.178 83.4999 316.5L210.5 450.5C214.068 454.011 218 455 222 455C226 455 239.5 449.5 239.5 439V400C220.994 374.393 216.184 357.541 216.5 323.5Z" fill="white"/>
<path d="M533.001 323.277C529.87 279.566 514.574 245.203 482 213.09C553.666 184.857 613.003 216.596 666.004 299.236C670.017 306.214 669.981 309.933 666.004 316.265L539.001 450.492C535.433 454.01 531.501 455 527.501 455C523.501 455 510.001 449.491 510.001 438.973V399.907C528.507 374.256 533.317 357.376 533.001 323.277Z" fill="white"/>
<path d="M232 514.499C225.5 521.499 238 541.5 253 528.499C268 515.499 275.5 500.5 282.5 481.5C289.5 459 293.5 434.5 292.5 422C291.5 409.499 265 376.999 265 392.5C265 408 268.1 439.632 261 463.5C252.748 491.241 238.5 507.5 232 514.499Z" fill="white"/>
<path d="M518.25 514.629C524.707 521.657 512.29 541.742 497.39 528.687C482.489 515.633 475.038 500.571 468.085 481.492C461.131 458.899 457.158 434.297 458.151 421.745C459.144 409.192 485.469 376.557 485.469 392.122C485.469 407.687 482.389 439.45 489.442 463.418C497.64 491.274 511.793 507.601 518.25 514.629Z" fill="white"/>
<path d="M318 438C318 425 320 419.5 320 419.5L427.5 422L432 437.5L431 517C431.723 530.609 430.974 538.176 426.5 551.5C419.465 568.511 413.769 576.966 399.5 589.5C381.33 603.234 369.007 606.373 344 605.5C324.392 602.765 315.2 597.734 301 584.5C291.138 573.295 286.574 565.978 283.5 547.5C283.333 539.165 283.466 533.982 286.5 525.5C291.577 517.139 295 513.811 301 512C313.069 508.357 320.515 513.249 326 520.5C330.24 524.745 327.935 533.807 329.5 541.5C330.796 547.869 333.089 551.9 338.5 555.5C345.978 560.475 353.997 559.673 361.5 555.5C369.003 551.327 371.534 547.375 374 540C376.416 532.776 374.155 525.249 373.5 520.5C372.845 515.751 370.372 510.431 367.5 507C364.628 503.569 337.954 479.998 331 472.5C324.046 465.002 318 451 318 438Z" fill="white"/>
<path d="M506 324.5C506 393.812 447.349 450 375 450C302.651 450 244 393.812 244 324.5C244 255.188 302.651 199 375 199C447.349 199 506 255.188 506 324.5Z" stroke="#01223B" stroke-width="54"/>
<path d="M216.5 323.5C219.631 279.863 234.927 245.558 267.5 213.5C195.836 185.314 136.5 217 83.4999 299.5C79.4874 306.466 79.5231 310.178 83.4999 316.5L210.5 450.5C214.068 454.011 218 455 222 455C226 455 239.5 449.5 239.5 439V400C220.994 374.393 216.184 357.541 216.5 323.5Z" stroke="#01223B" stroke-width="54"/>
<path d="M533.001 323.277C529.87 279.566 514.574 245.203 482 213.09C553.666 184.857 613.003 216.596 666.004 299.236C670.017 306.214 669.981 309.933 666.004 316.265L539.001 450.492C535.433 454.01 531.501 455 527.501 455C523.501 455 510.001 449.491 510.001 438.973V399.907C528.507 374.256 533.317 357.376 533.001 323.277Z" stroke="#01223B" stroke-width="54"/>
<path d="M232 514.499C225.5 521.499 238 541.5 253 528.499C268 515.499 275.5 500.5 282.5 481.5C289.5 459 293.5 434.5 292.5 422C291.5 409.499 265 376.999 265 392.5C265 408 268.1 439.632 261 463.5C252.748 491.241 238.5 507.5 232 514.499Z" stroke="#01223B" stroke-width="54"/>
<path d="M518.25 514.629C524.707 521.657 512.29 541.742 497.39 528.687C482.489 515.633 475.038 500.571 468.085 481.492C461.131 458.899 457.158 434.297 458.151 421.745C459.144 409.192 485.469 376.557 485.469 392.122C485.469 407.687 482.389 439.45 489.442 463.418C497.64 491.274 511.793 507.601 518.25 514.629Z" stroke="#01223B" stroke-width="54"/>
<path d="M318 438C318 425 320 419.5 320 419.5L427.5 422L432 437.5L431 517C431.723 530.609 430.974 538.176 426.5 551.5C419.465 568.511 413.769 576.966 399.5 589.5C381.33 603.234 369.007 606.373 344 605.5C324.392 602.765 315.2 597.734 301 584.5C291.138 573.295 286.574 565.978 283.5 547.5C283.333 539.165 283.466 533.982 286.5 525.5C291.577 517.139 295 513.811 301 512C313.069 508.357 320.515 513.249 326 520.5C330.24 524.745 327.935 533.807 329.5 541.5C330.796 547.869 333.089 551.9 338.5 555.5C345.978 560.475 353.997 559.673 361.5 555.5C369.003 551.327 371.534 547.375 374 540C376.416 532.776 374.155 525.249 373.5 520.5C372.845 515.751 370.372 510.431 367.5 507C364.628 503.569 337.954 479.998 331 472.5C324.046 465.002 318 451 318 438Z" stroke="#01223B" stroke-width="54"/>
<ellipse cx="375" cy="324.5" rx="131" ry="125.5" fill="white"/>
<path d="M216.5 323.5C219.631 279.863 234.927 245.558 267.5 213.5C195.836 185.314 136.5 217 83.4999 299.5C79.4874 306.466 79.5231 310.178 83.4999 316.5L210.5 450.5C214.068 454.011 218 455 222 455C226 455 239.5 449.5 239.5 439V400C220.994 374.393 216.184 357.541 216.5 323.5Z" fill="white"/>
<mask id="mask1_3_86" style="mask-type:alpha" maskUnits="userSpaceOnUse" x="80" y="203" width="188" height="252">
<path d="M216.5 323.5C219.631 279.863 234.927 245.558 267.5 213.5C195.836 185.314 136.5 217 83.4999 299.5C79.4874 306.466 79.5231 310.178 83.4999 316.5L210.5 450.5C214.068 454.011 218 455 222 455C226 455 239.5 449.5 239.5 439V400C220.994 374.393 216.184 357.541 216.5 323.5Z" fill="white"/>
</mask>
<g mask="url(#mask1_3_86)">
<path d="M288.817 325.277C292.083 281.566 308.033 247.203 342 215.09C267.268 186.857 205.393 218.596 150.124 301.236C145.94 308.214 145.977 311.933 150.124 318.265L282.56 452.492C286.281 456.01 290.381 457 294.552 457C298.724 457 312.802 451.491 312.802 440.973V401.907C293.504 376.256 288.487 359.376 288.817 325.277Z" fill="#98B7CC"/>
</g>
<path d="M533.001 323.073C529.87 279.437 514.574 245.132 482 213.073C553.666 184.887 613.003 216.573 666.004 299.073C670.017 306.039 669.981 309.752 666.004 316.073L539.001 450.073C535.433 453.584 531.501 454.573 527.501 454.573C523.501 454.573 510.001 449.073 510.001 438.573V399.573C528.507 373.966 533.317 357.115 533.001 323.073Z" fill="white"/>
<mask id="mask2_3_86" style="mask-type:alpha" maskUnits="userSpaceOnUse" x="482" y="203" width="187" height="252">
<path d="M533.001 323.073C529.87 279.437 514.574 245.132 482 213.073C553.666 184.887 613.003 216.573 666.004 299.073C670.017 306.039 669.981 309.752 666.004 316.073L539.001 450.073C535.433 453.584 531.501 454.573 527.501 454.573C523.501 454.573 510.001 449.073 510.001 438.573V399.573C528.507 373.966 533.317 357.115 533.001 323.073Z" fill="white"/>
</mask>
<g mask="url(#mask2_3_86)">
<path d="M460.682 324.85C457.417 281.14 441.466 246.776 407.498 214.664C482.232 186.43 544.108 218.17 599.378 300.81C603.563 307.787 603.525 311.506 599.378 317.839L466.939 452.066C463.219 455.583 459.118 456.573 454.947 456.573C450.775 456.573 436.697 451.064 436.697 440.546V401.48C455.996 375.83 461.012 358.95 460.682 324.85Z" fill="#98B7CC"/>
</g>
<path d="M232 514.499C225.5 521.499 238 541.5 253 528.499C268 515.499 275.5 500.5 282.5 481.5C289.5 459 293.5 434.5 292.5 422C291.5 409.499 265 376.999 265 392.5C265 408 268.1 439.632 261 463.5C252.748 491.241 238.5 507.5 232 514.499Z" fill="white"/>
<path d="M518.25 514.629C524.707 521.657 512.29 541.742 497.39 528.687C482.489 515.633 475.038 500.571 468.085 481.492C461.131 458.899 457.158 434.297 458.151 421.745C459.144 409.192 485.469 376.557 485.469 392.122C485.469 407.687 482.389 439.45 489.442 463.418C497.64 491.274 511.793 507.601 518.25 514.629Z" fill="white"/>
<path d="M318 438C318 425 320 419.5 320 419.5L427.5 422L432 437.5L431 517C431.723 530.609 430.974 538.176 426.5 551.5C419.465 568.511 413.769 576.966 399.5 589.5C381.33 603.234 369.007 606.373 344 605.5C324.392 602.765 315.2 597.734 301 584.5C291.138 573.295 286.574 565.978 283.5 547.5C283.333 539.165 283.466 533.982 286.5 525.5C291.577 517.139 295 513.811 301 512C313.069 508.357 320.515 513.249 326 520.5C330.24 524.745 327.935 533.807 329.5 541.5C330.796 547.869 333.089 551.9 338.5 555.5C345.978 560.475 353.997 559.673 361.5 555.5C369.003 551.327 371.534 547.375 374 540C376.416 532.776 374.155 525.249 373.5 520.5C372.845 515.751 370.372 510.431 367.5 507C364.628 503.569 337.955 479.998 331 472.5C324.046 465.002 318 451 318 438Z" fill="white"/>
<circle cx="309.5" cy="329.5" r="22.5" fill="#04253D"/>
<circle cx="439.5" cy="329.5" r="22.5" fill="#04253D"/>
</g>
<defs>
<clipPath id="clip0_3_86">
<rect width="750" height="750" fill="white"/>
</clipPath>
</defs>
</svg>
