<svg width="2253" height="750" viewBox="0 0 2253 750" fill="none" xmlns="http://www.w3.org/2000/svg">
<g clip-path="url(#clip0_3_35)">
<path d="M0 100C0 44.7715 44.7715 0 100 0H2153C2208.23 0 2253 44.7715 2253 100V650C2253 705.228 2208.23 750 2153 750H100C44.7715 750 0 705.228 0 650V100Z" fill="#01223B"/>
<rect x="138" y="137" width="475" height="475" rx="45" fill="#B0C4D3"/>
<rect x="186" y="182" width="385" height="385" rx="18" fill="#01223B"/>
<mask id="mask0_3_35" style="mask-type:alpha" maskUnits="userSpaceOnUse" x="138" y="331" width="523" height="178">
<path d="M138 481.5V371V331H172.5L613 345.5V452L660.5 501.5L571 508.5V482L568 402.5L532 391L185 371V507.5L138 481.5Z" fill="white"/>
</mask>
<g mask="url(#mask0_3_35)">
<path d="M506.137 324.613C506.137 393.987 447.536 450.225 375.248 450.225C302.96 450.225 244.358 393.987 244.358 324.613C244.358 255.239 302.96 199 375.248 199C447.536 199 506.137 255.239 506.137 324.613Z" fill="white"/>
<path d="M216.881 323.611C220.01 279.936 235.293 245.6 267.838 213.513C196.234 185.302 136.949 217.016 83.9935 299.59C79.9843 306.562 80.0201 310.278 83.9935 316.606L210.886 450.726C214.451 454.24 218.38 455.23 222.377 455.23C226.373 455.23 239.862 449.725 239.862 439.215V400.18C221.372 374.55 216.565 357.684 216.881 323.611Z" fill="white"/>
<path d="M533.116 323.388C529.987 279.639 514.704 245.245 482.158 213.103C553.763 184.844 613.05 216.612 666.006 299.326C670.016 306.31 669.98 310.032 666.006 316.371L539.111 450.718C535.546 454.239 531.617 455.23 527.62 455.23C523.623 455.23 510.135 449.716 510.135 439.188V400.087C528.625 374.414 533.432 357.518 533.116 323.388Z" fill="white"/>
<path d="M232.368 514.783C225.874 521.788 238.363 541.808 253.351 528.795C268.338 515.783 275.832 500.771 282.826 481.754C289.82 459.234 293.817 434.711 292.817 422.2C291.818 409.688 265.341 377.159 265.341 392.673C265.341 408.188 268.438 439.848 261.344 463.738C253.099 491.503 238.863 507.777 232.368 514.783Z" fill="white"/>
<path d="M518.378 514.912C524.829 521.947 512.422 542.05 497.534 528.983C482.646 515.917 475.202 500.842 468.254 481.746C461.306 459.133 457.336 434.508 458.329 421.945C459.321 409.381 485.624 376.717 485.624 392.295C485.624 407.874 482.546 439.666 489.594 463.655C497.785 491.536 511.926 507.878 518.378 514.912Z" fill="white"/>
<path d="M318.296 438.215C318.296 425.203 320.294 419.698 320.294 419.698L427.704 422.2L432.2 437.714L431.201 517.286C431.923 530.907 431.174 538.48 426.704 551.817C419.676 568.843 413.985 577.305 399.727 589.851C381.572 603.597 369.259 606.738 344.274 605.865C324.682 603.128 315.498 598.092 301.31 584.846C291.456 573.631 286.896 566.308 283.825 547.813C283.658 539.471 283.791 534.283 286.822 525.793C291.895 517.424 295.315 514.094 301.31 512.281C313.369 508.635 320.809 513.532 326.289 520.789C330.525 525.038 328.223 534.107 329.786 541.808C331.081 548.182 333.372 552.217 338.779 555.82C346.251 560.8 354.262 559.997 361.759 555.82C369.256 551.643 371.785 547.688 374.249 540.306C376.663 533.075 374.403 525.542 373.749 520.789C373.095 516.036 370.624 510.71 367.754 507.277C364.884 503.843 338.234 480.25 331.285 472.746C324.336 465.241 318.296 451.226 318.296 438.215Z" fill="white"/>
<path d="M506.137 324.613C506.137 393.987 447.536 450.225 375.248 450.225C302.96 450.225 244.358 393.987 244.358 324.613C244.358 255.239 302.96 199 375.248 199C447.536 199 506.137 255.239 506.137 324.613Z" stroke="#729BB6" stroke-width="85"/>
<path d="M216.881 323.611C220.01 279.936 235.293 245.6 267.838 213.513C196.234 185.302 136.949 217.016 83.9935 299.59C79.9843 306.562 80.0201 310.278 83.9935 316.606L210.886 450.726C214.451 454.24 218.38 455.23 222.377 455.23C226.373 455.23 239.862 449.725 239.862 439.215V400.18C221.372 374.55 216.565 357.684 216.881 323.611Z" stroke="#729BB6" stroke-width="85"/>
<path d="M533.116 323.388C529.987 279.639 514.704 245.245 482.158 213.103C553.763 184.844 613.05 216.612 666.006 299.326C670.016 306.31 669.98 310.032 666.006 316.371L539.111 450.718C535.546 454.239 531.617 455.23 527.62 455.23C523.623 455.23 510.135 449.716 510.135 439.188V400.087C528.625 374.414 533.432 357.518 533.116 323.388Z" stroke="#729BB6" stroke-width="85"/>
<path d="M232.368 514.783C225.874 521.788 238.363 541.808 253.351 528.795C268.338 515.783 275.832 500.771 282.826 481.754C289.82 459.234 293.817 434.711 292.817 422.2C291.818 409.688 265.341 377.159 265.341 392.673C265.341 408.188 268.438 439.848 261.344 463.738C253.099 491.503 238.863 507.777 232.368 514.783Z" stroke="#729BB6" stroke-width="85"/>
<path d="M518.378 514.912C524.829 521.947 512.422 542.05 497.534 528.983C482.646 515.917 475.202 500.842 468.254 481.746C461.306 459.133 457.336 434.508 458.329 421.945C459.321 409.381 485.624 376.717 485.624 392.295C485.624 407.874 482.546 439.666 489.594 463.655C497.785 491.536 511.926 507.878 518.378 514.912Z" stroke="#729BB6" stroke-width="85"/>
<path d="M318.296 438.215C318.296 425.203 320.294 419.698 320.294 419.698L427.704 422.2L432.2 437.714L431.201 517.286C431.923 530.907 431.174 538.48 426.704 551.817C419.676 568.843 413.985 577.305 399.727 589.851C381.572 603.597 369.259 606.738 344.274 605.865C324.682 603.128 315.498 598.092 301.31 584.846C291.456 573.631 286.896 566.308 283.825 547.813C283.658 539.471 283.791 534.283 286.822 525.793C291.895 517.424 295.315 514.094 301.31 512.281C313.369 508.635 320.809 513.532 326.289 520.789C330.525 525.038 328.223 534.107 329.786 541.808C331.081 548.182 333.372 552.217 338.779 555.82C346.251 560.8 354.262 559.997 361.759 555.82C369.256 551.643 371.785 547.688 374.249 540.306C376.663 533.075 374.403 525.542 373.749 520.789C373.095 516.036 370.624 510.71 367.754 507.277C364.884 503.843 338.234 480.25 331.285 472.746C324.336 465.241 318.296 451.226 318.296 438.215Z" stroke="#729BB6" stroke-width="85"/>
</g>
<path d="M506 324.5C506 393.812 447.349 450 375 450C302.651 450 244 393.812 244 324.5C244 255.188 302.651 199 375 199C447.349 199 506 255.188 506 324.5Z" fill="white"/>
<path d="M216.5 323.5C219.631 279.863 234.927 245.558 267.5 213.5C195.836 185.314 136.5 217 83.4999 299.5C79.4874 306.466 79.5231 310.178 83.4999 316.5L210.5 450.5C214.068 454.011 218 455 222 455C226 455 239.5 449.5 239.5 439V400C220.994 374.393 216.184 357.541 216.5 323.5Z" fill="white"/>
<path d="M533.001 323.277C529.87 279.566 514.574 245.203 482 213.09C553.666 184.857 613.003 216.596 666.004 299.236C670.017 306.214 669.981 309.933 666.004 316.265L539.001 450.492C535.433 454.01 531.501 455 527.501 455C523.501 455 510.001 449.491 510.001 438.973V399.907C528.507 374.256 533.317 357.376 533.001 323.277Z" fill="white"/>
<path d="M232 514.499C225.5 521.499 238 541.5 253 528.499C268 515.499 275.5 500.5 282.5 481.5C289.5 459 293.5 434.5 292.5 422C291.5 409.499 265 376.999 265 392.5C265 408 268.1 439.632 261 463.5C252.748 491.241 238.5 507.5 232 514.499Z" fill="white"/>
<path d="M518.25 514.629C524.707 521.657 512.29 541.742 497.39 528.687C482.489 515.633 475.038 500.571 468.085 481.492C461.131 458.899 457.158 434.297 458.151 421.745C459.144 409.192 485.469 376.557 485.469 392.122C485.469 407.687 482.389 439.45 489.442 463.418C497.64 491.274 511.793 507.601 518.25 514.629Z" fill="white"/>
<path d="M318 438C318 425 320 419.5 320 419.5L427.5 422L432 437.5L431 517C431.723 530.609 430.974 538.176 426.5 551.5C419.465 568.511 413.769 576.966 399.5 589.5C381.33 603.234 369.007 606.373 344 605.5C324.392 602.765 315.2 597.734 301 584.5C291.138 573.295 286.574 565.978 283.5 547.5C283.333 539.165 283.466 533.982 286.5 525.5C291.577 517.139 295 513.811 301 512C313.069 508.357 320.515 513.249 326 520.5C330.24 524.745 327.935 533.807 329.5 541.5C330.796 547.869 333.089 551.9 338.5 555.5C345.978 560.475 353.997 559.673 361.5 555.5C369.003 551.327 371.534 547.375 374 540C376.416 532.776 374.155 525.249 373.5 520.5C372.845 515.751 370.372 510.431 367.5 507C364.628 503.569 337.954 479.998 331 472.5C324.046 465.002 318 451 318 438Z" fill="white"/>
<path d="M506 324.5C506 393.812 447.349 450 375 450C302.651 450 244 393.812 244 324.5C244 255.188 302.651 199 375 199C447.349 199 506 255.188 506 324.5Z" stroke="#01223B" stroke-width="54"/>
<path d="M216.5 323.5C219.631 279.863 234.927 245.558 267.5 213.5C195.836 185.314 136.5 217 83.4999 299.5C79.4874 306.466 79.5231 310.178 83.4999 316.5L210.5 450.5C214.068 454.011 218 455 222 455C226 455 239.5 449.5 239.5 439V400C220.994 374.393 216.184 357.541 216.5 323.5Z" stroke="#01223B" stroke-width="54"/>
<path d="M533.001 323.277C529.87 279.566 514.574 245.203 482 213.09C553.666 184.857 613.003 216.596 666.004 299.236C670.017 306.214 669.981 309.933 666.004 316.265L539.001 450.492C535.433 454.01 531.501 455 527.501 455C523.501 455 510.001 449.491 510.001 438.973V399.907C528.507 374.256 533.317 357.376 533.001 323.277Z" stroke="#01223B" stroke-width="54"/>
<path d="M232 514.499C225.5 521.499 238 541.5 253 528.499C268 515.499 275.5 500.5 282.5 481.5C289.5 459 293.5 434.5 292.5 422C291.5 409.499 265 376.999 265 392.5C265 408 268.1 439.632 261 463.5C252.748 491.241 238.5 507.5 232 514.499Z" stroke="#01223B" stroke-width="54"/>
<path d="M518.25 514.629C524.707 521.657 512.29 541.742 497.39 528.687C482.489 515.633 475.038 500.571 468.085 481.492C461.131 458.899 457.158 434.297 458.151 421.745C459.144 409.192 485.469 376.557 485.469 392.122C485.469 407.687 482.389 439.45 489.442 463.418C497.64 491.274 511.793 507.601 518.25 514.629Z" stroke="#01223B" stroke-width="54"/>
<path d="M318 438C318 425 320 419.5 320 419.5L427.5 422L432 437.5L431 517C431.723 530.609 430.974 538.176 426.5 551.5C419.465 568.511 413.769 576.966 399.5 589.5C381.33 603.234 369.007 606.373 344 605.5C324.392 602.765 315.2 597.734 301 584.5C291.138 573.295 286.574 565.978 283.5 547.5C283.333 539.165 283.466 533.982 286.5 525.5C291.577 517.139 295 513.811 301 512C313.069 508.357 320.515 513.249 326 520.5C330.24 524.745 327.935 533.807 329.5 541.5C330.796 547.869 333.089 551.9 338.5 555.5C345.978 560.475 353.997 559.673 361.5 555.5C369.003 551.327 371.534 547.375 374 540C376.416 532.776 374.155 525.249 373.5 520.5C372.845 515.751 370.372 510.431 367.5 507C364.628 503.569 337.954 479.998 331 472.5C324.046 465.002 318 451 318 438Z" stroke="#01223B" stroke-width="54"/>
<ellipse cx="375" cy="324.5" rx="131" ry="125.5" fill="white"/>
<path d="M216.5 323.5C219.631 279.863 234.927 245.558 267.5 213.5C195.836 185.314 136.5 217 83.4999 299.5C79.4874 306.466 79.5231 310.178 83.4999 316.5L210.5 450.5C214.068 454.011 218 455 222 455C226 455 239.5 449.5 239.5 439V400C220.994 374.393 216.184 357.541 216.5 323.5Z" fill="white"/>
<mask id="mask1_3_35" style="mask-type:alpha" maskUnits="userSpaceOnUse" x="80" y="203" width="188" height="252">
<path d="M216.5 323.5C219.631 279.863 234.927 245.558 267.5 213.5C195.836 185.314 136.5 217 83.4999 299.5C79.4874 306.466 79.5231 310.178 83.4999 316.5L210.5 450.5C214.068 454.011 218 455 222 455C226 455 239.5 449.5 239.5 439V400C220.994 374.393 216.184 357.541 216.5 323.5Z" fill="white"/>
</mask>
<g mask="url(#mask1_3_35)">
<path d="M288.817 325.277C292.083 281.566 308.033 247.203 342 215.09C267.268 186.857 205.393 218.596 150.124 301.236C145.94 308.214 145.977 311.933 150.124 318.265L282.56 452.492C286.281 456.01 290.381 457 294.552 457C298.724 457 312.802 451.491 312.802 440.973V401.907C293.504 376.256 288.487 359.376 288.817 325.277Z" fill="#98B7CC"/>
</g>
<path d="M533.001 323.073C529.87 279.437 514.574 245.132 482 213.073C553.666 184.887 613.003 216.573 666.004 299.073C670.017 306.039 669.981 309.752 666.004 316.073L539.001 450.073C535.433 453.584 531.501 454.573 527.501 454.573C523.501 454.573 510.001 449.073 510.001 438.573V399.573C528.507 373.966 533.317 357.115 533.001 323.073Z" fill="white"/>
<mask id="mask2_3_35" style="mask-type:alpha" maskUnits="userSpaceOnUse" x="482" y="203" width="187" height="252">
<path d="M533.001 323.073C529.87 279.437 514.574 245.132 482 213.073C553.666 184.887 613.003 216.573 666.004 299.073C670.017 306.039 669.981 309.752 666.004 316.073L539.001 450.073C535.433 453.584 531.501 454.573 527.501 454.573C523.501 454.573 510.001 449.073 510.001 438.573V399.573C528.507 373.966 533.317 357.115 533.001 323.073Z" fill="white"/>
</mask>
<g mask="url(#mask2_3_35)">
<path d="M460.682 324.85C457.417 281.14 441.466 246.776 407.498 214.664C482.232 186.43 544.108 218.17 599.378 300.81C603.563 307.787 603.525 311.506 599.378 317.839L466.939 452.066C463.219 455.583 459.118 456.573 454.947 456.573C450.775 456.573 436.697 451.064 436.697 440.546V401.48C455.996 375.83 461.012 358.95 460.682 324.85Z" fill="#98B7CC"/>
</g>
<path d="M232 514.499C225.5 521.499 238 541.5 253 528.499C268 515.499 275.5 500.5 282.5 481.5C289.5 459 293.5 434.5 292.5 422C291.5 409.499 265 376.999 265 392.5C265 408 268.1 439.632 261 463.5C252.748 491.241 238.5 507.5 232 514.499Z" fill="white"/>
<path d="M518.25 514.629C524.707 521.657 512.29 541.742 497.39 528.687C482.489 515.633 475.038 500.571 468.085 481.492C461.131 458.899 457.158 434.297 458.151 421.745C459.144 409.192 485.469 376.557 485.469 392.122C485.469 407.687 482.389 439.45 489.442 463.418C497.64 491.274 511.793 507.601 518.25 514.629Z" fill="white"/>
<path d="M318 438C318 425 320 419.5 320 419.5L427.5 422L432 437.5L431 517C431.723 530.609 430.974 538.176 426.5 551.5C419.465 568.511 413.769 576.966 399.5 589.5C381.33 603.234 369.007 606.373 344 605.5C324.392 602.765 315.2 597.734 301 584.5C291.138 573.295 286.574 565.978 283.5 547.5C283.333 539.165 283.466 533.982 286.5 525.5C291.577 517.139 295 513.811 301 512C313.069 508.357 320.515 513.249 326 520.5C330.24 524.745 327.935 533.807 329.5 541.5C330.796 547.869 333.089 551.9 338.5 555.5C345.978 560.475 353.997 559.673 361.5 555.5C369.003 551.327 371.534 547.375 374 540C376.416 532.776 374.155 525.249 373.5 520.5C372.845 515.751 370.372 510.431 367.5 507C364.628 503.569 337.955 479.998 331 472.5C324.046 465.002 318 451 318 438Z" fill="white"/>
<circle cx="309.5" cy="329.5" r="22.5" fill="#04253D"/>
<circle cx="439.5" cy="329.5" r="22.5" fill="#04253D"/>
<path d="M777.036 445.84C777.548 445.84 777.996 445.989 778.38 446.288C778.764 446.544 779.02 446.907 779.148 447.376L793.356 490H787.532L776.076 453.776C775.905 453.179 775.713 452.581 775.5 451.984C775.329 451.344 775.158 450.747 774.988 450.192H773.196C773.025 450.747 772.854 451.344 772.684 451.984C772.513 452.581 772.321 453.179 772.108 453.776L760.652 490H754.828L769.036 447.376C769.164 446.907 769.42 446.544 769.804 446.288C770.188 445.989 770.636 445.84 771.148 445.84H777.036ZM785.228 471.312V476.176H762.828V471.312H785.228ZM853.984 445.84C855.52 445.84 856.288 446.629 856.288 448.208L858.144 490H852.512L850.912 450.512H849.568L839.712 483.088C839.37 484.368 838.56 485.008 837.28 485.008H832.224C830.901 485.008 830.048 484.368 829.664 483.088L819.808 450.512H818.528L816.992 490H811.36L813.088 448.208C813.173 446.629 813.962 445.84 815.456 445.84H821.856C823.05 445.84 823.84 446.48 824.224 447.76L832.48 474.704C832.821 475.685 833.098 476.667 833.312 477.648C833.568 478.629 833.845 479.632 834.144 480.656H835.296C835.594 479.632 835.872 478.629 836.128 477.648C836.384 476.667 836.661 475.643 836.96 474.576L845.216 447.76C845.557 446.48 846.368 445.84 847.648 445.84H853.984ZM880.989 458.064C884.573 458.064 887.431 458.597 889.565 459.664C891.741 460.731 893.298 462.48 894.237 464.912C895.175 467.301 895.645 470.48 895.645 474.448C895.645 478.416 895.175 481.616 894.237 484.048C893.298 486.437 891.741 488.165 889.565 489.232C887.431 490.299 884.573 490.832 880.989 490.832C877.447 490.832 874.589 490.299 872.413 489.232C870.279 488.165 868.722 486.437 867.741 484.048C866.802 481.616 866.333 478.416 866.333 474.448C866.333 470.48 866.802 467.301 867.741 464.912C868.722 462.48 870.279 460.731 872.413 459.664C874.589 458.597 877.447 458.064 880.989 458.064ZM880.989 462.672C878.727 462.672 876.935 463.035 875.613 463.76C874.333 464.443 873.415 465.637 872.861 467.344C872.306 469.051 872.029 471.419 872.029 474.448C872.029 477.477 872.306 479.845 872.861 481.552C873.415 483.259 874.333 484.475 875.613 485.2C876.935 485.883 878.727 486.224 880.989 486.224C883.25 486.224 885.042 485.883 886.365 485.2C887.687 484.475 888.626 483.259 889.181 481.552C889.735 479.845 890.013 477.477 890.013 474.448C890.013 471.419 889.735 469.051 889.181 467.344C888.626 465.637 887.687 464.443 886.365 463.76C885.042 463.035 883.25 462.672 880.989 462.672ZM914.548 458.064C916.596 458.064 918.622 458.341 920.628 458.896C922.633 459.408 924.553 460.219 926.388 461.328L926.068 464.72C924.062 464.123 922.292 463.653 920.756 463.312C919.22 462.971 917.577 462.8 915.828 462.8C914.036 462.8 912.585 463.12 911.476 463.76C910.409 464.357 909.62 465.488 909.108 467.152C908.596 468.816 908.34 471.184 908.34 474.256C908.34 477.328 908.574 479.717 909.044 481.424C909.556 483.131 910.345 484.325 911.412 485.008C912.478 485.691 913.844 486.032 915.508 486.032C916.745 486.032 917.854 485.883 918.836 485.584C919.86 485.243 920.926 484.709 922.036 483.984C923.188 483.259 924.532 482.341 926.068 481.232L926.58 485.072C924.873 486.651 922.932 487.995 920.756 489.104C918.58 490.213 916.233 490.768 913.716 490.768C909.79 490.768 906.974 489.381 905.268 486.608C903.604 483.835 902.772 479.739 902.772 474.32C902.772 470.267 903.198 467.067 904.052 464.72C904.905 462.331 906.206 460.624 907.956 459.6C909.705 458.576 911.902 458.064 914.548 458.064ZM930.804 445.2V490H926.58L925.94 484.56L925.364 484.112V462.736L925.748 461.776C925.577 460.581 925.47 459.429 925.428 458.32C925.385 457.211 925.364 456.037 925.364 454.8V445.2H930.804ZM953.667 458.064C958.36 458.064 961.752 458.917 963.843 460.624C965.976 462.331 967.043 464.869 967.043 468.24C967.086 471.013 966.51 473.189 965.315 474.768C964.12 476.304 962.222 477.072 959.619 477.072H941.443V472.848H958.211C959.619 472.848 960.536 472.379 960.963 471.44C961.39 470.459 961.603 469.392 961.603 468.24C961.56 466.235 960.963 464.805 959.811 463.952C958.659 463.099 956.696 462.672 953.923 462.672C951.662 462.672 949.87 463.013 948.547 463.696C947.267 464.336 946.35 465.488 945.795 467.152C945.283 468.773 945.027 471.056 945.027 474C945.027 477.328 945.347 479.867 945.987 481.616C946.67 483.365 947.736 484.56 949.187 485.2C950.638 485.84 952.558 486.16 954.947 486.16C956.611 486.16 958.424 486.096 960.387 485.968C962.392 485.797 964.184 485.605 965.763 485.392L966.339 489.04C965.358 489.424 964.142 489.744 962.691 490C961.283 490.256 959.811 490.448 958.275 490.576C956.782 490.704 955.438 490.768 954.243 490.768C950.659 490.768 947.779 490.235 945.603 489.168C943.427 488.059 941.827 486.309 940.803 483.92C939.822 481.488 939.331 478.288 939.331 474.32C939.331 470.224 939.822 467.003 940.803 464.656C941.827 462.267 943.384 460.581 945.475 459.6C947.608 458.576 950.339 458.064 953.667 458.064ZM979.466 458.832L980.17 464.784L980.682 465.744V490H975.242V458.832H979.466ZM994.762 458.064L994.122 463.184H992.33C990.495 463.184 988.661 463.568 986.826 464.336C984.991 465.061 982.751 466.107 980.106 467.472L979.658 464.08C981.962 462.203 984.266 460.731 986.57 459.664C988.917 458.597 991.178 458.064 993.354 458.064H994.762ZM1019.87 458.064C1025.51 458.064 1028.32 460.923 1028.32 466.64V490H1022.88V468.176C1022.88 466.085 1022.54 464.656 1021.86 463.888C1021.17 463.077 1020.02 462.672 1018.4 462.672C1016.48 462.672 1014.56 463.141 1012.64 464.08C1010.72 465.019 1008.44 466.299 1005.79 467.92L1005.54 464.016C1007.97 462.139 1010.38 460.688 1012.77 459.664C1015.16 458.597 1017.53 458.064 1019.87 458.064ZM1005.54 458.832L1005.99 464.784L1006.37 465.744V490H1000.93V458.832H1005.54ZM1068.18 445.264C1071.59 445.264 1074.34 445.648 1076.43 446.416C1078.52 447.141 1080.04 448.421 1080.98 450.256C1081.96 452.091 1082.45 454.672 1082.45 458C1082.45 460.389 1082.17 462.395 1081.62 464.016C1081.06 465.595 1080.19 466.832 1078.99 467.728C1077.84 468.581 1076.28 469.136 1074.32 469.392V469.712C1075.04 469.883 1075.75 470.245 1076.43 470.8C1077.16 471.312 1077.82 472.016 1078.42 472.912C1079.01 473.765 1079.46 474.811 1079.76 476.048L1084.05 490H1078.03L1074.13 476.176C1073.57 474.512 1072.83 473.339 1071.89 472.656C1070.95 471.931 1069.73 471.568 1068.24 471.568C1065.64 471.568 1063.38 471.568 1061.46 471.568C1059.54 471.525 1057.94 471.483 1056.66 471.44C1055.38 471.397 1054.35 471.376 1053.58 471.376L1053.78 466.704H1068.05C1070.22 466.661 1071.93 466.405 1073.17 465.936C1074.45 465.467 1075.36 464.635 1075.92 463.44C1076.47 462.203 1076.75 460.496 1076.75 458.32C1076.75 456.144 1076.47 454.48 1075.92 453.328C1075.36 452.133 1074.45 451.301 1073.17 450.832C1071.93 450.363 1070.22 450.128 1068.05 450.128C1064.55 450.128 1061.52 450.149 1058.96 450.192C1056.44 450.235 1054.74 450.256 1053.84 450.256L1052.94 445.84C1054.56 445.669 1056.08 445.541 1057.49 445.456C1058.9 445.371 1060.43 445.328 1062.1 445.328C1063.8 445.285 1065.83 445.264 1068.18 445.264ZM1058.51 445.84V490H1052.94V445.84H1058.51ZM1104.42 458.064C1109.11 458.064 1112.5 458.917 1114.59 460.624C1116.73 462.331 1117.79 464.869 1117.79 468.24C1117.84 471.013 1117.26 473.189 1116.07 474.768C1114.87 476.304 1112.97 477.072 1110.37 477.072H1092.19V472.848H1108.96C1110.37 472.848 1111.29 472.379 1111.71 471.44C1112.14 470.459 1112.35 469.392 1112.35 468.24C1112.31 466.235 1111.71 464.805 1110.56 463.952C1109.41 463.099 1107.45 462.672 1104.67 462.672C1102.41 462.672 1100.62 463.013 1099.3 463.696C1098.02 464.336 1097.1 465.488 1096.55 467.152C1096.03 468.773 1095.78 471.056 1095.78 474C1095.78 477.328 1096.1 479.867 1096.74 481.616C1097.42 483.365 1098.49 484.56 1099.94 485.2C1101.39 485.84 1103.31 486.16 1105.7 486.16C1107.36 486.16 1109.17 486.096 1111.14 485.968C1113.14 485.797 1114.93 485.605 1116.51 485.392L1117.09 489.04C1116.11 489.424 1114.89 489.744 1113.44 490C1112.03 490.256 1110.56 490.448 1109.03 490.576C1107.53 490.704 1106.19 490.768 1104.99 490.768C1101.41 490.768 1098.53 490.235 1096.35 489.168C1094.18 488.059 1092.58 486.309 1091.55 483.92C1090.57 481.488 1090.08 478.288 1090.08 474.32C1090.08 470.224 1090.57 467.003 1091.55 464.656C1092.58 462.267 1094.13 460.581 1096.23 459.6C1098.36 458.576 1101.09 458.064 1104.42 458.064ZM1140.71 458.064C1143.02 458.064 1144.96 458.384 1146.54 459.024C1148.16 459.621 1149.37 460.645 1150.18 462.096C1150.99 463.547 1151.4 465.531 1151.4 468.048V490H1147.11L1146.28 483.216L1145.9 482.512V468.048C1145.9 466.128 1145.45 464.763 1144.55 463.952C1143.7 463.099 1142.03 462.672 1139.56 462.672C1137.94 462.672 1135.89 462.757 1133.42 462.928C1130.98 463.099 1128.57 463.291 1126.18 463.504L1125.67 459.472C1127.12 459.216 1128.7 458.981 1130.41 458.768C1132.16 458.555 1133.93 458.384 1135.72 458.256C1137.51 458.128 1139.18 458.064 1140.71 458.064ZM1148.84 470.8L1148.78 474.896L1133.86 474.96C1132.37 475.003 1131.33 475.408 1130.73 476.176C1130.13 476.901 1129.83 477.925 1129.83 479.248V481.232C1129.83 482.853 1130.22 484.048 1130.98 484.816C1131.75 485.541 1132.99 485.904 1134.7 485.904C1135.89 485.904 1137.23 485.691 1138.73 485.264C1140.26 484.795 1141.8 484.091 1143.34 483.152C1144.87 482.213 1146.28 481.019 1147.56 479.568V483.6C1147.09 484.197 1146.41 484.901 1145.51 485.712C1144.66 486.48 1143.61 487.248 1142.38 488.016C1141.18 488.741 1139.84 489.36 1138.34 489.872C1136.89 490.341 1135.31 490.576 1133.61 490.576C1131.77 490.576 1130.15 490.256 1128.74 489.616C1127.34 488.933 1126.23 487.952 1125.42 486.672C1124.65 485.349 1124.26 483.749 1124.26 481.872V478.48C1124.26 476.048 1125.01 474.171 1126.5 472.848C1128.04 471.483 1130.17 470.8 1132.9 470.8H1148.84ZM1166.62 445.2L1166.56 481.424C1166.56 482.789 1166.92 483.835 1167.65 484.56C1168.41 485.243 1169.48 485.584 1170.85 485.584H1173.85L1174.49 489.744C1174.11 489.915 1173.55 490.064 1172.83 490.192C1172.15 490.32 1171.42 490.405 1170.65 490.448C1169.93 490.533 1169.31 490.576 1168.8 490.576C1166.49 490.576 1164.64 489.893 1163.23 488.528C1161.86 487.163 1161.18 485.2 1161.18 482.64V445.2H1166.62ZM1198.07 471.76V475.92H1178.55V471.76H1198.07ZM1220.56 445.84V490H1214.93V445.84H1220.56ZM1234.84 445.84V450.832H1200.72V445.84H1234.84ZM1247 458.832V490H1241.62V458.832H1247ZM1245.59 445.584C1246.7 445.584 1247.26 446.139 1247.26 447.248V450.896C1247.26 452.005 1246.7 452.56 1245.59 452.56H1243.03C1241.92 452.56 1241.37 452.005 1241.37 450.896V447.248C1241.37 446.139 1241.92 445.584 1243.03 445.584H1245.59ZM1295.19 458.064C1297.88 458.064 1299.93 458.789 1301.34 460.24C1302.79 461.691 1303.51 463.824 1303.51 466.64V490H1298.14V468.176C1298.1 466.256 1297.71 464.869 1296.99 464.016C1296.26 463.12 1295.02 462.672 1293.27 462.672C1292.16 462.672 1291.1 462.864 1290.07 463.248C1289.09 463.589 1288 464.144 1286.81 464.912C1285.62 465.68 1284.16 466.683 1282.46 467.92L1282.14 464.08C1284.4 462.075 1286.6 460.581 1288.73 459.6C1290.86 458.576 1293.02 458.064 1295.19 458.064ZM1261.72 458.832L1262.11 464.784L1262.68 465.744V490H1257.24V458.832H1261.72ZM1274.78 458.064C1277.42 458.064 1279.45 458.789 1280.86 460.24C1282.27 461.648 1282.99 463.781 1283.03 466.64V490H1277.79V468.176C1277.79 466.171 1277.38 464.763 1276.57 463.952C1275.76 463.099 1274.54 462.672 1272.92 462.672C1271.86 462.672 1270.81 462.843 1269.79 463.184C1268.8 463.525 1267.7 464.08 1266.46 464.848C1265.26 465.616 1263.79 466.64 1262.04 467.92L1261.66 464.08C1263.92 462.075 1266.12 460.581 1268.25 459.6C1270.38 458.576 1272.56 458.064 1274.78 458.064ZM1326.1 458.064C1330.8 458.064 1334.19 458.917 1336.28 460.624C1338.41 462.331 1339.48 464.869 1339.48 468.24C1339.52 471.013 1338.95 473.189 1337.75 474.768C1336.56 476.304 1334.66 477.072 1332.06 477.072H1313.88V472.848H1330.65C1332.06 472.848 1332.97 472.379 1333.4 471.44C1333.83 470.459 1334.04 469.392 1334.04 468.24C1334 466.235 1333.4 464.805 1332.25 463.952C1331.1 463.099 1329.13 462.672 1326.36 462.672C1324.1 462.672 1322.31 463.013 1320.98 463.696C1319.7 464.336 1318.79 465.488 1318.23 467.152C1317.72 468.773 1317.46 471.056 1317.46 474C1317.46 477.328 1317.78 479.867 1318.42 481.616C1319.11 483.365 1320.17 484.56 1321.62 485.2C1323.08 485.84 1325 486.16 1327.38 486.16C1329.05 486.16 1330.86 486.096 1332.82 485.968C1334.83 485.797 1336.62 485.605 1338.2 485.392L1338.78 489.04C1337.8 489.424 1336.58 489.744 1335.13 490C1333.72 490.256 1332.25 490.448 1330.71 490.576C1329.22 490.704 1327.88 490.768 1326.68 490.768C1323.1 490.768 1320.22 490.235 1318.04 489.168C1315.86 488.059 1314.26 486.309 1313.24 483.92C1312.26 481.488 1311.77 478.288 1311.77 474.32C1311.77 470.224 1312.26 467.003 1313.24 464.656C1314.26 462.267 1315.82 460.581 1317.91 459.6C1320.05 458.576 1322.78 458.064 1326.1 458.064ZM1893.95 444.112C1894.63 444.112 1895.51 444.133 1896.57 444.176C1897.64 444.176 1898.73 444.219 1899.84 444.304C1900.95 444.347 1901.91 444.432 1902.72 444.56L1902.27 448.592H1895.87C1893.82 448.592 1892.37 448.997 1891.52 449.808C1890.71 450.619 1890.3 451.963 1890.3 453.84V490H1884.86V453.264C1884.86 451.301 1885.16 449.659 1885.76 448.336C1886.35 446.971 1887.31 445.925 1888.64 445.2C1889.96 444.475 1891.73 444.112 1893.95 444.112ZM1900.29 458.832V463.12H1879.23V459.152L1885.18 458.832H1900.29ZM1919.43 458.064C1923.01 458.064 1925.87 458.597 1928 459.664C1930.18 460.731 1931.74 462.48 1932.67 464.912C1933.61 467.301 1934.08 470.48 1934.08 474.448C1934.08 478.416 1933.61 481.616 1932.67 484.048C1931.74 486.437 1930.18 488.165 1928 489.232C1925.87 490.299 1923.01 490.832 1919.43 490.832C1915.88 490.832 1913.03 490.299 1910.85 489.232C1908.72 488.165 1907.16 486.437 1906.18 484.048C1905.24 481.616 1904.77 478.416 1904.77 474.448C1904.77 470.48 1905.24 467.301 1906.18 464.912C1907.16 462.48 1908.72 460.731 1910.85 459.664C1913.03 458.597 1915.88 458.064 1919.43 458.064ZM1919.43 462.672C1917.16 462.672 1915.37 463.035 1914.05 463.76C1912.77 464.443 1911.85 465.637 1911.3 467.344C1910.74 469.051 1910.47 471.419 1910.47 474.448C1910.47 477.477 1910.74 479.845 1911.3 481.552C1911.85 483.259 1912.77 484.475 1914.05 485.2C1915.37 485.883 1917.16 486.224 1919.43 486.224C1921.69 486.224 1923.48 485.883 1924.8 485.2C1926.12 484.475 1927.06 483.259 1927.62 481.552C1928.17 479.845 1928.45 477.477 1928.45 474.448C1928.45 471.419 1928.17 469.051 1927.62 467.344C1927.06 465.637 1926.12 464.443 1924.8 463.76C1923.48 463.035 1921.69 462.672 1919.43 462.672ZM1946.84 458.832L1947.55 464.784L1948.06 465.744V490H1942.62V458.832H1946.84ZM1962.14 458.064L1961.5 463.184H1959.71C1957.87 463.184 1956.04 463.568 1954.2 464.336C1952.37 465.061 1950.13 466.107 1947.48 467.472L1947.03 464.08C1949.34 462.203 1951.64 460.731 1953.95 459.664C1956.29 458.597 1958.55 458.064 1960.73 458.064H1962.14Z" fill="#B0C4D3"/>
<path d="M1379.03 444.944C1381.21 444.944 1383.13 445.008 1384.79 445.136C1386.5 445.264 1388.08 445.456 1389.53 445.712C1391.02 445.925 1392.49 446.245 1393.94 446.672L1393.05 455.376C1391.51 455.333 1390.02 455.312 1388.57 455.312C1387.12 455.269 1385.65 455.248 1384.15 455.248C1382.66 455.205 1381 455.184 1379.16 455.184C1377.67 455.184 1376.41 455.355 1375.38 455.696C1374.4 456.037 1373.61 456.677 1373.02 457.616C1372.46 458.555 1372.06 459.877 1371.8 461.584C1371.54 463.248 1371.42 465.381 1371.42 467.984C1371.42 471.269 1371.61 473.829 1371.99 475.664C1372.42 477.499 1373.1 478.779 1374.04 479.504C1374.98 480.229 1376.28 480.592 1377.94 480.592C1379.05 480.592 1380.06 480.528 1380.95 480.4C1381.89 480.229 1382.72 480.016 1383.45 479.76C1384.22 479.461 1384.88 479.205 1385.43 478.992L1386.65 484.24C1386.09 485.093 1385.2 486.053 1383.96 487.12C1382.77 488.144 1381.27 489.04 1379.48 489.808C1377.69 490.533 1375.62 490.896 1373.27 490.896C1369.94 490.896 1367.19 490.128 1365.02 488.592C1362.88 487.013 1361.3 484.539 1360.28 481.168C1359.3 477.797 1358.81 473.381 1358.81 467.92C1358.81 462.203 1359.45 457.68 1360.73 454.352C1362.05 450.981 1364.18 448.571 1367.13 447.12C1370.12 445.669 1374.08 444.944 1379.03 444.944ZM1395.67 464.592V490H1386.84L1385.24 483.216L1384.15 481.104V464.592H1395.67ZM1410.85 458.192L1412.26 464.592L1413.41 465.424V490H1401.76V458.192H1410.85ZM1426.34 457.296L1425.32 467.984H1422.24C1420.96 467.984 1419.56 468.112 1418.02 468.368C1416.48 468.624 1414.54 469.051 1412.2 469.648L1411.49 463.312C1413.63 461.307 1415.8 459.813 1418.02 458.832C1420.28 457.808 1422.46 457.296 1424.55 457.296H1426.34ZM1447.3 457.296C1450.16 457.296 1452.57 457.68 1454.54 458.448C1456.54 459.216 1458.06 460.496 1459.08 462.288C1460.1 464.08 1460.62 466.555 1460.62 469.712V490H1451.34L1449.74 483.152L1448.97 482V469.648C1448.92 468.325 1448.58 467.387 1447.94 466.832C1447.35 466.235 1446.24 465.936 1444.62 465.936C1442.95 465.936 1440.9 465.979 1438.47 466.064C1436.04 466.107 1433.5 466.213 1430.86 466.384L1429.83 458.896C1431.41 458.597 1433.24 458.341 1435.34 458.128C1437.47 457.872 1439.6 457.68 1441.74 457.552C1443.87 457.381 1445.72 457.296 1447.3 457.296ZM1456.01 470.48L1455.94 476.368H1442.31C1441.33 476.411 1440.6 476.667 1440.14 477.136C1439.71 477.563 1439.5 478.16 1439.5 478.928V480.144C1439.5 480.955 1439.75 481.595 1440.26 482.064C1440.82 482.491 1441.63 482.704 1442.7 482.704C1443.76 482.704 1444.89 482.469 1446.09 482C1447.28 481.531 1448.46 480.891 1449.61 480.08C1450.76 479.269 1451.76 478.395 1452.62 477.456V481.552C1452.27 482.235 1451.74 483.088 1451.02 484.112C1450.33 485.136 1449.44 486.181 1448.33 487.248C1447.22 488.272 1445.87 489.125 1444.3 489.808C1442.72 490.491 1440.88 490.832 1438.79 490.832C1436.87 490.832 1435.1 490.491 1433.48 489.808C1431.86 489.125 1430.56 488.123 1429.58 486.8C1428.64 485.477 1428.17 483.813 1428.17 481.808V478.608C1428.17 476.048 1429.06 474.064 1430.86 472.656C1432.69 471.205 1435.16 470.48 1438.28 470.48H1456.01ZM1489.16 457.424C1493.26 457.424 1496.16 458.896 1497.87 461.84C1499.62 464.784 1500.49 468.987 1500.49 474.448C1500.49 478.757 1500.02 482.107 1499.08 484.496C1498.19 486.843 1496.84 488.507 1495.05 489.488C1493.3 490.427 1491.1 490.896 1488.46 490.896C1486.11 490.896 1483.89 490.555 1481.8 489.872C1479.71 489.147 1477.96 487.973 1476.55 486.352L1477.32 481.552C1478.43 481.893 1479.46 482.235 1480.39 482.576C1481.38 482.875 1482.57 483.024 1483.98 483.024C1485.09 483.024 1485.96 482.832 1486.6 482.448C1487.29 482.021 1487.78 481.211 1488.07 480.016C1488.37 478.779 1488.52 476.944 1488.52 474.512C1488.52 472.08 1488.37 470.245 1488.07 469.008C1487.78 467.771 1487.31 466.96 1486.67 466.576C1486.07 466.192 1485.28 466 1484.3 466C1483.02 466 1481.95 466.192 1481.1 466.576C1480.25 466.917 1479.29 467.408 1478.22 468.048L1476.68 463.312C1477.37 462.203 1478.35 461.2 1479.63 460.304C1480.91 459.408 1482.36 458.704 1483.98 458.192C1485.64 457.68 1487.37 457.424 1489.16 457.424ZM1476.17 458.192L1477.26 463.568L1478.47 464.528V485.456L1478.09 486.224C1478.22 487.547 1478.3 488.955 1478.35 490.448C1478.43 491.984 1478.47 493.456 1478.47 494.864V501.84H1466.83V458.192H1476.17ZM1529.57 457.296C1535.71 457.296 1538.78 460.261 1538.78 466.192V490H1527.14V469.84C1527.14 468.816 1526.92 468.112 1526.5 467.728C1526.11 467.344 1525.41 467.152 1524.38 467.152C1523.32 467.152 1522.16 467.301 1520.93 467.6C1519.73 467.899 1518.22 468.453 1516.38 469.264L1515.23 463.888C1517.54 461.712 1519.9 460.069 1522.34 458.96C1524.81 457.851 1527.22 457.296 1529.57 457.296ZM1517.6 445.2L1517.66 455.376C1517.66 457.168 1517.54 458.896 1517.28 460.56C1517.02 462.224 1516.75 463.568 1516.45 464.592L1517.6 465.424V490H1505.95V445.2H1517.6ZM1556.98 458.192V490H1545.4V458.192H1556.98ZM1553.65 443.856C1555.91 443.856 1557.04 445.008 1557.04 447.312V450.64C1557.04 452.944 1555.91 454.096 1553.65 454.096H1548.66C1546.4 454.096 1545.27 452.944 1545.27 450.64V447.312C1545.27 445.008 1546.4 443.856 1548.66 443.856H1553.65ZM1579.19 457.296C1580.43 457.296 1581.79 457.36 1583.28 457.488C1584.78 457.616 1586.27 457.851 1587.76 458.192C1589.26 458.491 1590.6 458.917 1591.8 459.472L1590.64 466.704C1588.72 466.704 1587 466.704 1585.46 466.704C1583.92 466.661 1582.49 466.64 1581.17 466.64C1579.55 466.64 1578.27 466.853 1577.33 467.28C1576.39 467.707 1575.73 468.453 1575.35 469.52C1574.96 470.544 1574.77 472.059 1574.77 474.064C1574.77 476.027 1574.96 477.563 1575.35 478.672C1575.73 479.739 1576.39 480.485 1577.33 480.912C1578.27 481.296 1579.55 481.488 1581.17 481.488C1581.9 481.488 1582.79 481.488 1583.86 481.488C1584.93 481.445 1586.1 481.403 1587.38 481.36C1588.66 481.275 1589.94 481.168 1591.22 481.04L1592.31 488.336C1590.47 489.232 1588.38 489.851 1586.04 490.192C1583.73 490.576 1581.41 490.768 1579.06 490.768C1575.05 490.768 1571.83 490.235 1569.4 489.168C1566.96 488.059 1565.21 486.288 1564.15 483.856C1563.08 481.381 1562.55 478.117 1562.55 474.064C1562.55 469.925 1563.08 466.64 1564.15 464.208C1565.26 461.776 1567.03 460.027 1569.46 458.96C1571.89 457.851 1575.13 457.296 1579.19 457.296ZM1609.82 457.296C1611.48 457.296 1613.25 457.36 1615.13 457.488C1617.05 457.616 1618.92 457.765 1620.76 457.936C1622.59 458.107 1624.17 458.341 1625.5 458.64L1624.73 465.552C1622.64 465.552 1620.52 465.552 1618.39 465.552C1616.3 465.509 1614.27 465.488 1612.31 465.488C1610.78 465.488 1609.62 465.509 1608.86 465.552C1608.09 465.595 1607.55 465.723 1607.26 465.936C1607 466.107 1606.87 466.448 1606.87 466.96C1606.87 467.6 1607.15 468.027 1607.7 468.24C1608.26 468.453 1609.28 468.773 1610.78 469.2L1618.58 471.12C1621.36 471.845 1623.4 472.912 1624.73 474.32C1626.05 475.685 1626.71 477.755 1626.71 480.528C1626.71 483.173 1626.2 485.243 1625.18 486.736C1624.19 488.187 1622.59 489.211 1620.38 489.808C1618.16 490.405 1615.28 490.704 1611.74 490.704C1610.28 490.704 1608.15 490.64 1605.34 490.512C1602.52 490.384 1599.45 490.043 1596.12 489.488L1596.82 482.512C1597.46 482.512 1598.38 482.533 1599.58 482.576C1600.81 482.576 1602.18 482.576 1603.67 482.576C1605.16 482.576 1606.64 482.576 1608.09 482.576C1610.18 482.576 1611.76 482.555 1612.82 482.512C1613.89 482.427 1614.59 482.256 1614.94 482C1615.32 481.744 1615.51 481.36 1615.51 480.848C1615.51 480.208 1615.19 479.781 1614.55 479.568C1613.91 479.312 1612.78 478.971 1611.16 478.544L1603.67 476.56C1601.5 475.963 1599.81 475.195 1598.62 474.256C1597.46 473.317 1596.67 472.208 1596.25 470.928C1595.82 469.648 1595.61 468.176 1595.61 466.512C1595.61 464.421 1596.06 462.715 1596.95 461.392C1597.85 460.027 1599.32 459.003 1601.37 458.32C1603.46 457.637 1606.27 457.296 1609.82 457.296ZM1657.74 445.84V477.648C1657.74 478.501 1658.02 479.184 1658.57 479.696C1659.13 480.165 1659.88 480.4 1660.81 480.4H1675.92L1676.49 489.424C1673.29 489.808 1669.92 490.021 1666.38 490.064C1662.84 490.149 1659.34 490.192 1655.89 490.192C1652.69 490.192 1650.19 489.296 1648.4 487.504C1646.65 485.712 1645.77 483.387 1645.77 480.528V445.84H1657.74ZM1692.17 458.192V490H1680.58V458.192H1692.17ZM1688.84 443.856C1691.1 443.856 1692.23 445.008 1692.23 447.312V450.64C1692.23 452.944 1691.1 454.096 1688.84 454.096H1683.85C1681.59 454.096 1680.45 452.944 1680.45 450.64V447.312C1680.45 445.008 1681.59 443.856 1683.85 443.856H1688.84ZM1720.52 457.296C1724.87 457.296 1727.94 458.576 1729.74 461.136C1731.53 463.696 1732.42 467.899 1732.42 473.744C1732.42 476.048 1732.19 478.224 1731.72 480.272C1731.29 482.277 1730.5 484.091 1729.35 485.712C1728.2 487.291 1726.54 488.528 1724.36 489.424C1722.23 490.32 1719.43 490.768 1715.98 490.768C1714.82 490.768 1713.46 490.704 1711.88 490.576C1710.34 490.491 1708.74 490.341 1707.08 490.128C1705.46 489.915 1703.92 489.659 1702.47 489.36C1701.02 489.019 1699.83 488.635 1698.89 488.208L1708.17 481.744C1708.76 481.957 1709.51 482.149 1710.41 482.32C1711.35 482.491 1712.28 482.619 1713.22 482.704C1714.2 482.747 1715.04 482.768 1715.72 482.768C1716.91 482.683 1717.85 482.405 1718.54 481.936C1719.22 481.424 1719.71 480.528 1720.01 479.248C1720.31 477.968 1720.46 476.155 1720.46 473.808C1720.46 471.76 1720.33 470.203 1720.07 469.136C1719.82 468.027 1719.32 467.259 1718.6 466.832C1717.92 466.405 1716.96 466.192 1715.72 466.192C1714.48 466.192 1713.39 466.405 1712.46 466.832C1711.52 467.216 1710.49 467.728 1709.38 468.368L1708.55 463.504C1709.53 462.395 1710.64 461.371 1711.88 460.432C1713.12 459.493 1714.46 458.747 1715.91 458.192C1717.4 457.595 1718.94 457.296 1720.52 457.296ZM1710.47 445.2L1710.6 454.736C1710.64 456.229 1710.56 457.723 1710.34 459.216C1710.17 460.667 1709.83 462.053 1709.32 463.376L1710.47 464.208V488.72L1698.89 488.208V445.2H1710.47ZM1746.91 458.192L1748.32 464.592L1749.47 465.424V490H1737.83V458.192H1746.91ZM1762.4 457.296L1761.38 467.984H1758.31C1757.03 467.984 1755.62 468.112 1754.08 468.368C1752.55 468.624 1750.61 469.051 1748.26 469.648L1747.55 463.312C1749.69 461.307 1751.86 459.813 1754.08 458.832C1756.34 457.808 1758.52 457.296 1760.61 457.296H1762.4ZM1783.37 457.296C1786.22 457.296 1788.63 457.68 1790.6 458.448C1792.6 459.216 1794.12 460.496 1795.14 462.288C1796.17 464.08 1796.68 466.555 1796.68 469.712V490H1787.4L1785.8 483.152L1785.03 482V469.648C1784.99 468.325 1784.65 467.387 1784.01 466.832C1783.41 466.235 1782.3 465.936 1780.68 465.936C1779.01 465.936 1776.97 465.979 1774.53 466.064C1772.1 466.107 1769.56 466.213 1766.92 466.384L1765.89 458.896C1767.47 458.597 1769.31 458.341 1771.4 458.128C1773.53 457.872 1775.66 457.68 1777.8 457.552C1779.93 457.381 1781.79 457.296 1783.37 457.296ZM1792.07 470.48L1792.01 476.368H1778.37C1777.39 476.411 1776.67 476.667 1776.2 477.136C1775.77 477.563 1775.56 478.16 1775.56 478.928V480.144C1775.56 480.955 1775.81 481.595 1776.33 482.064C1776.88 482.491 1777.69 482.704 1778.76 482.704C1779.82 482.704 1780.95 482.469 1782.15 482C1783.34 481.531 1784.52 480.891 1785.67 480.08C1786.82 479.269 1787.82 478.395 1788.68 477.456V481.552C1788.34 482.235 1787.8 483.088 1787.08 484.112C1786.39 485.136 1785.5 486.181 1784.39 487.248C1783.28 488.272 1781.94 489.125 1780.36 489.808C1778.78 490.491 1776.94 490.832 1774.85 490.832C1772.93 490.832 1771.16 490.491 1769.54 489.808C1767.92 489.125 1766.62 488.123 1765.64 486.8C1764.7 485.477 1764.23 483.813 1764.23 481.808V478.608C1764.23 476.048 1765.13 474.064 1766.92 472.656C1768.75 471.205 1771.23 470.48 1774.34 470.48H1792.07ZM1811.98 458.192L1813.39 464.592L1814.54 465.424V490H1802.89V458.192H1811.98ZM1827.47 457.296L1826.44 467.984H1823.37C1822.09 467.984 1820.68 468.112 1819.15 468.368C1817.61 468.624 1815.67 469.051 1813.32 469.648L1812.62 463.312C1814.75 461.307 1816.93 459.813 1819.15 458.832C1821.41 457.808 1823.58 457.296 1825.67 457.296H1827.47ZM1865.12 458.192L1854.44 489.68C1853.88 491.344 1853.11 493.051 1852.13 494.8C1851.15 496.549 1849.87 498.107 1848.29 499.472C1846.76 500.88 1844.88 501.904 1842.66 502.544C1840.44 503.184 1837.84 503.248 1834.85 502.736L1834.02 496.336C1836.62 495.739 1838.67 494.928 1840.16 493.904C1841.7 492.88 1842.87 491.451 1843.68 489.616L1845.86 484.816C1846.33 483.792 1846.74 482.533 1847.08 481.04C1847.46 479.504 1847.76 478.203 1847.97 477.136L1852.71 458.192H1865.12ZM1840.29 458.192L1845.09 477.136C1845.26 478.032 1845.41 478.949 1845.54 479.888C1845.71 480.827 1845.86 481.744 1845.99 482.64H1847.78L1844.2 490H1841.51C1840.61 490 1839.82 489.744 1839.14 489.232C1838.5 488.72 1838.05 488.059 1837.8 487.248L1827.94 458.192H1840.29ZM1998.63 445.2C2003.07 445.2 2006.55 445.648 2009.07 446.544C2011.58 447.397 2013.37 448.891 2014.44 451.024C2015.51 453.157 2016.04 456.144 2016.04 459.984C2016.04 463.824 2015.53 466.811 2014.51 468.944C2013.52 471.035 2011.88 472.507 2009.58 473.36C2007.27 474.213 2004.18 474.64 2000.3 474.64C1998.25 474.64 1996.2 474.555 1994.15 474.384C1992.15 474.171 1990.27 473.915 1988.52 473.616C1986.77 473.275 1985.28 472.933 1984.04 472.592C1982.8 472.208 1981.95 471.888 1981.48 471.632L1981.67 466C1984.32 466 1987.07 466 1989.93 466C1992.79 466 1995.6 466 1998.38 466C1999.87 465.957 2001.02 465.787 2001.83 465.488C2002.64 465.147 2003.2 464.549 2003.5 463.696C2003.84 462.8 2004.01 461.563 2004.01 459.984C2004.01 458.363 2003.84 457.104 2003.5 456.208C2003.2 455.312 2002.64 454.715 2001.83 454.416C2001.02 454.075 1999.87 453.904 1998.38 453.904C1994.24 453.904 1990.7 453.925 1987.75 453.968C1984.81 454.011 1982.8 454.096 1981.74 454.224L1980.78 445.84C1982.65 445.627 1984.43 445.477 1986.09 445.392C1987.75 445.307 1989.57 445.264 1991.53 445.264C1993.49 445.221 1995.86 445.2 1998.63 445.2ZM1992.81 445.84V490H1980.78V445.84H1992.81ZM2033.31 445.84V490H2021.34V445.84H2033.31ZM2047.26 462.224V470.864H2032.8V462.224H2047.26ZM2058.59 445.84V490H2046.56V445.84H2058.59ZM2084.2 445.2C2088.63 445.2 2092.11 445.648 2094.63 446.544C2097.15 447.397 2098.94 448.891 2100 451.024C2101.07 453.157 2101.6 456.144 2101.6 459.984C2101.6 463.824 2101.09 466.811 2100.07 468.944C2099.09 471.035 2097.44 472.507 2095.14 473.36C2092.84 474.213 2089.74 474.64 2085.86 474.64C2083.81 474.64 2081.76 474.555 2079.72 474.384C2077.71 474.171 2075.83 473.915 2074.08 473.616C2072.33 473.275 2070.84 472.933 2069.6 472.592C2068.37 472.208 2067.51 471.888 2067.04 471.632L2067.24 466C2069.88 466 2072.63 466 2075.49 466C2078.35 466 2081.17 466 2083.94 466C2085.43 465.957 2086.59 465.787 2087.4 465.488C2088.21 465.147 2088.76 464.549 2089.06 463.696C2089.4 462.8 2089.57 461.563 2089.57 459.984C2089.57 458.363 2089.4 457.104 2089.06 456.208C2088.76 455.312 2088.21 454.715 2087.4 454.416C2086.59 454.075 2085.43 453.904 2083.94 453.904C2079.8 453.904 2076.26 453.925 2073.32 453.968C2070.37 454.011 2068.37 454.096 2067.3 454.224L2066.34 445.84C2068.22 445.627 2069.99 445.477 2071.65 445.392C2073.32 445.307 2075.13 445.264 2077.09 445.264C2079.05 445.221 2081.42 445.2 2084.2 445.2ZM2078.37 445.84V490H2066.34V445.84H2078.37Z" fill="white"/>
<path d="M798.142 284.4C807.017 284.4 813.971 285.296 819.006 287.088C824.041 288.795 827.625 291.781 829.758 296.048C831.891 300.315 832.958 306.288 832.958 313.968C832.958 321.648 831.934 327.621 829.886 331.888C827.923 336.069 824.638 339.013 820.03 340.72C815.422 342.427 809.235 343.28 801.47 343.28C797.374 343.28 793.278 343.109 789.182 342.768C785.171 342.341 781.417 341.829 777.918 341.232C774.419 340.549 771.433 339.867 768.958 339.184C766.483 338.416 764.777 337.776 763.838 337.264L764.222 326C769.513 326 775.017 326 780.734 326C786.451 326 792.083 326 797.63 326C800.617 325.915 802.921 325.573 804.542 324.976C806.163 324.293 807.273 323.099 807.87 321.392C808.553 319.6 808.894 317.125 808.894 313.968C808.894 310.725 808.553 308.208 807.87 306.416C807.273 304.624 806.163 303.429 804.542 302.832C802.921 302.149 800.617 301.808 797.63 301.808C789.353 301.808 782.27 301.851 776.382 301.936C770.494 302.021 766.483 302.192 764.35 302.448L762.43 285.68C766.185 285.253 769.726 284.955 773.054 284.784C776.382 284.613 780.009 284.528 783.934 284.528C787.859 284.443 792.595 284.4 798.142 284.4ZM786.494 285.68V374H762.43V285.68H786.494ZM867.494 285.68V374H843.558V285.68H867.494ZM895.398 318.448V335.728H866.47V318.448H895.398ZM918.054 285.68V374H893.99V285.68H918.054ZM969.267 284.4C978.142 284.4 985.096 285.296 990.131 287.088C995.166 288.795 998.75 291.781 1000.88 296.048C1003.02 300.315 1004.08 306.288 1004.08 313.968C1004.08 321.648 1003.06 327.621 1001.01 331.888C999.048 336.069 995.763 339.013 991.155 340.72C986.547 342.427 980.36 343.28 972.595 343.28C968.499 343.28 964.403 343.109 960.307 342.768C956.296 342.341 952.542 341.829 949.043 341.232C945.544 340.549 942.558 339.867 940.083 339.184C937.608 338.416 935.902 337.776 934.963 337.264L935.347 326C940.638 326 946.142 326 951.859 326C957.576 326 963.208 326 968.755 326C971.742 325.915 974.046 325.573 975.667 324.976C977.288 324.293 978.398 323.099 978.995 321.392C979.678 319.6 980.019 317.125 980.019 313.968C980.019 310.725 979.678 308.208 978.995 306.416C978.398 304.624 977.288 303.429 975.667 302.832C974.046 302.149 971.742 301.808 968.755 301.808C960.478 301.808 953.395 301.851 947.507 301.936C941.619 302.021 937.608 302.192 935.475 302.448L933.555 285.68C937.31 285.253 940.851 284.955 944.179 284.784C947.507 284.613 951.134 284.528 955.059 284.528C958.984 284.443 963.72 284.4 969.267 284.4ZM957.619 285.68V374H933.555V285.68H957.619ZM1050.91 334.192V348.272H1013.15V334.192H1050.91ZM1102.69 283.888C1107.04 283.888 1110.88 284.016 1114.21 284.272C1117.62 284.528 1120.78 284.912 1123.68 285.424C1126.67 285.851 1129.61 286.491 1132.51 287.344L1130.72 304.752C1127.65 304.667 1124.66 304.624 1121.76 304.624C1118.86 304.539 1115.92 304.496 1112.93 304.496C1109.94 304.411 1106.62 304.368 1102.95 304.368C1099.96 304.368 1097.44 304.709 1095.39 305.392C1093.43 306.075 1091.85 307.355 1090.66 309.232C1089.55 311.109 1088.74 313.755 1088.23 317.168C1087.71 320.496 1087.46 324.763 1087.46 329.968C1087.46 336.539 1087.84 341.659 1088.61 345.328C1089.46 348.997 1090.83 351.557 1092.71 353.008C1094.58 354.459 1097.19 355.184 1100.51 355.184C1102.73 355.184 1104.74 355.056 1106.53 354.8C1108.41 354.459 1110.07 354.032 1111.52 353.52C1113.06 352.923 1114.38 352.411 1115.49 351.984L1117.92 362.48C1116.81 364.187 1115.02 366.107 1112.55 368.24C1110.16 370.288 1107.17 372.08 1103.59 373.616C1100 375.067 1095.86 375.792 1091.17 375.792C1084.51 375.792 1079.01 374.256 1074.66 371.184C1070.39 368.027 1067.23 363.077 1065.19 356.336C1063.22 349.595 1062.24 340.763 1062.24 329.84C1062.24 318.405 1063.52 309.36 1066.08 302.704C1068.73 295.963 1072.99 291.141 1078.88 288.24C1084.86 285.339 1092.79 283.888 1102.69 283.888ZM1135.97 323.184V374H1118.31L1115.11 360.432L1112.93 356.208V323.184H1135.97ZM1172.99 285.68V349.296C1172.99 351.003 1173.54 352.368 1174.65 353.392C1175.76 354.331 1177.25 354.8 1179.13 354.8H1209.34L1210.49 372.848C1204.09 373.616 1197.35 374.043 1190.27 374.128C1183.18 374.299 1176.19 374.384 1169.27 374.384C1162.87 374.384 1157.88 372.592 1154.3 369.008C1150.8 365.424 1149.05 360.773 1149.05 355.056V285.68H1172.99ZM1239.15 285.296C1243.92 285.296 1248.83 285.339 1253.87 285.424C1258.9 285.424 1263.81 285.552 1268.59 285.808C1273.45 285.979 1277.84 286.32 1281.77 286.832L1280.62 303.856H1249.26C1247.29 303.856 1245.76 304.368 1244.65 305.392C1243.63 306.331 1243.11 307.653 1243.11 309.36V374H1219.05V304.368C1219.05 298.651 1220.88 294.043 1224.55 290.544C1228.31 287.045 1233.17 285.296 1239.15 285.296ZM1221.35 322.032H1275.88V338.288H1221.35V322.032ZM1408.03 285.68L1395.49 367.472C1395.14 369.435 1394.16 371.013 1392.54 372.208C1391.01 373.403 1389.21 374 1387.17 374H1366.05C1363.91 374 1362.03 373.403 1360.41 372.208C1358.88 371.013 1357.98 369.435 1357.73 367.472L1349.92 314.736C1349.66 312.688 1349.45 310.64 1349.28 308.592C1349.11 306.544 1348.89 304.496 1348.64 302.448H1346.33C1346.25 304.496 1346.08 306.587 1345.82 308.72C1345.65 310.768 1345.44 312.816 1345.18 314.864L1337.5 367.472C1337.25 369.435 1336.31 371.013 1334.69 372.208C1333.06 373.403 1331.23 374 1329.18 374H1307.93C1305.8 374 1303.92 373.403 1302.3 372.208C1300.77 371.013 1299.87 369.435 1299.61 367.472L1286.94 285.68H1310.88L1317.53 343.152C1317.7 345.2 1317.83 347.376 1317.92 349.68C1318.09 351.984 1318.22 354.416 1318.3 356.976H1320.48C1320.82 354.843 1321.16 352.539 1321.5 350.064C1321.93 347.589 1322.27 345.243 1322.53 343.024L1330.21 292.848C1330.46 290.715 1331.36 289.008 1332.89 287.728C1334.43 286.363 1336.26 285.68 1338.4 285.68H1356.57C1358.71 285.68 1360.5 286.363 1361.95 287.728C1363.49 289.008 1364.42 290.715 1364.77 292.848L1372.57 343.28C1372.83 345.499 1373.13 347.803 1373.47 350.192C1373.81 352.581 1374.15 354.843 1374.49 356.976H1376.8C1376.8 354.757 1376.88 352.453 1377.05 350.064C1377.31 347.675 1377.48 345.456 1377.57 343.408L1384.09 285.68H1408.03Z" fill="white"/>
</g>
<defs>
<clipPath id="clip0_3_35">
<rect width="2253" height="750" fill="white"/>
</clipPath>
</defs>
</svg>
